<?xml version="1.0" encoding="UTF-8"?>
<svg width="24px" height="24px" viewBox="0 0 24 24" version="1.1" xmlns="http://www.w3.org/2000/svg" xmlns:xlink="http://www.w3.org/1999/xlink">
    <!-- Generator: Sketch 56.2 (81672) - https://sketch.com -->
    <title>Cart Mobile</title>
    <desc>Created with Sketch.</desc>
    <g id="Mobile" stroke="none" stroke-width="1" fill="none" fill-rule="evenodd">
        <g id="Mobile-Menu" transform="translate(-33.000000, -112.000000)" fill="#172B3B">
            <g id="Group-3" transform="translate(30.000000, 107.000000)">
                <g id="Icon-/-Cart" transform="translate(0.000000, 2.000000)">
                    <path d="M3.53180224,3.00120575 C3.59430239,3.00745563 3.65805376,3.02620848 3.71680665,3.0599572 L5.81184647,4.2375143 C5.93559875,4.30751746 6.02310088,4.42877413 6.05310133,4.57128936 L7.42310614,9.89664951 L26.5145961,9.89664951 C26.838345,9.89664951 27.0721086,10.2191601 26.9795952,10.5391745 L25.0233095,19.3834133 C24.9620573,19.594674 24.7720544,19.7396854 24.5583104,19.7396854 C24.5583104,19.7396854 8.52798692,19.7309362 8.51806677,19.7309362 L8.51806677,19.7321843 C7.92429775,19.7321843 7.44179442,20.2297107 7.44179442,20.8409703 C7.44179442,21.4535099 7.92554577,21.9510363 8.51806677,21.9510363 L20.6158505,21.9510363 C21.964607,21.9510363 23.0633757,23.0835994 23.0633757,24.4761422 C23.0633757,25.8674689 21.965855,27 20.6158505,27 C19.267094,27 18.1683253,25.8674369 18.1683253,24.4761422 C18.1683253,23.9011083 18.3633299,23.3773406 18.6783491,22.9523295 L12.5070554,22.9523295 C12.8220585,23.3773406 13.0157991,23.9011083 13.0157991,24.4761422 C13.0157991,25.8674689 11.9182784,27 10.5682739,27 C9.21826941,27 8.12074874,25.8674369 8.12074874,24.4761422 C8.12074874,23.9011083 8.3157533,23.3773406 8.63077248,22.9523295 L8.51827157,22.9523295 C7.38951843,22.9523295 6.47200049,22.0060468 6.47200049,20.8422183 C6.47200049,19.8496615 7.14074665,19.0221362 8.03701626,18.7971341 L5.15198045,5.00643218 L3.25319961,3.93889604 C3.01819444,3.80639086 2.93069871,3.50262036 3.05944626,3.26011343 C3.15569733,3.07885405 3.34570021,2.98260011 3.53321346,3.00260102 L3.53180224,3.00120575 Z" id="Fill-1"></path>
                </g>
            </g>
        </g>
    </g>
</svg>