<?xml version="1.0" encoding="UTF-8"?>
<svg width="54px" height="54px" viewBox="0 0 54 54" version="1.1" xmlns="http://www.w3.org/2000/svg" xmlns:xlink="http://www.w3.org/1999/xlink">
    <!-- Generator: sketchtool 55.2 (78181) - https://sketchapp.com -->
    <title>F109FE2C-09D7-455A-B74F-2179F5501F37@1x</title>
    <desc>Created with sketchtool.</desc>
    <g id="Desktop" stroke="none" stroke-width="1" fill="none" fill-rule="evenodd">
        <g id="Product-|-8-fl-v2" transform="translate(-243.000000, -961.000000)" fill="#172B3B">
            <g id="Attributes" transform="translate(135.000000, 953.000000)">
                <g id="Box-1">
                    <g id="Chemical-icon" transform="translate(100.000000, 0.000000)">
                        <g id="Group-6" transform="translate(8.000000, 8.000000)">
                            <path d="M27,2.27373675e-13 C12.08898,2.27373675e-13 0,12.08898 0,27 C0,41.91102 12.08898,54 27,54 C41.91102,54 54,41.91102 54,27 C54,12.08898 41.91102,2.27373675e-13 27,2.27373675e-13 Z M50.76,27 C50.76,32.9697 48.54303,38.4264 44.89614,42.6033 L11.39724,9.1044 C15.573816,5.457294 21.03084,3.24054 27.00054,3.24054 C40.10202,3.24054 50.76054,13.89906 50.76054,27.00054 L50.76,27 Z M3.24,27 C3.24,21.0303 5.45697,15.5736 9.10386,11.3967 L42.60276,44.8956 C38.426184,48.542706 32.96916,50.75946 26.99946,50.75946 C13.89798,50.75946 3.23946,40.10094 3.23946,26.99946 L3.24,27 Z" id="Fill-1"></path>
                            <path d="M30,19.000742 C30,21.6664193 26,21.6664193 26,19.000742 C26,16.333086 30,16.333086 30,19.000742" id="Fill-2"></path>
                            <path d="M29,14.4990681 C29,16.5003106 26,16.5003106 26,14.4990681 C26,12.5003106 29,12.5003106 29,14.4990681" id="Fill-3"></path>
                            <path d="M27,11.5 C27,14.8333333 22,14.8333333 22,11.5 C22,8.16666667 27,8.16666667 27,11.5" id="Fill-4"></path>
                            <path d="M35.6343516,43.3881714 L29.1188893,31.9480389 L29.1188893,25.0963354 C29.6512853,25.0107713 29.6512853,24.6663735 29.6512853,24.2342869 L29.6512853,23.8749174 C29.6512853,23.3765042 29.414204,23 28.9296225,23 L25.0842859,23 C24.601802,23 24.327272,23.3764823 24.327272,23.8749174 L24.327272,24.2342869 C24.327272,24.6663844 24.327272,25.0107986 24.859668,25.0963354 L24.859668,31.9480389 L18.3628395,43.3881714 C17.5371998,44.8534677 18.163191,46 19.8081882,46 L34.2057734,46 C35.8507706,46 36.4580748,44.853413 35.6345114,43.3881714 L35.6343516,43.3881714 Z" id="Fill-5"></path>
                        </g>
                    </g>
                </g>
            </g>
        </g>
    </g>
</svg>