<?xml version="1.0" encoding="UTF-8"?>
<svg width="70px" height="70px" viewBox="0 0 70 70" version="1.1" xmlns="http://www.w3.org/2000/svg" xmlns:xlink="http://www.w3.org/1999/xlink">
    <!-- Generator: sketchtool 55.2 (78181) - https://sketchapp.com -->
    <title>3E087BFB-FE1D-440C-B41E-2E95A820E032@1x</title>
    <desc>Created with sketchtool.</desc>
    <defs>
        <polygon id="path-1" points="0.0021741573 0.353534661 44.9726966 0.353534661 44.9726966 51.9557522 0.0021741573 51.9557522"></polygon>
    </defs>
    <g id="Desktop" stroke="none" stroke-width="1" fill="none" fill-rule="evenodd" opacity="0.25">
        <g id="Home-v2" transform="translate(-86.000000, -3627.000000)">
            <g id="Testimonials" transform="translate(-164.000000, 3510.000000)">
                <g id="Testimonial3" transform="translate(0.000000, 117.000000)">
                    <g id="Female-Avatar" transform="translate(250.000000, 0.000000)">
                        <rect id="Rectangle-Copy-3" fill="#F1F7FC" x="0" y="0" width="70" height="70" rx="35"></rect>
                        <g id="Group-10" transform="translate(13.000000, 13.000000)">
                            <g id="Group-3" transform="translate(0.000000, 4.706788)">
                                <mask id="mask-2" fill="white">
                                    <use xlink:href="#path-1"></use>
                                </mask>
                                <g id="Clip-2"></g>
                                <path d="M44.9728483,43.1814345 C42.0832416,37.2090451 30.9465,34.6460628 30.9465,34.6460628 C30.3700955,34.3116292 28.7768933,33.431408 28.672736,32.7353018 L27.9906573,28.6666115 C28.1549831,28.1974965 29.1950393,27.4413637 29.7668933,25.8922752 C30.1764438,24.7810274 31.2822303,21.3867531 31.2822303,21.3867531 C31.3201517,21.1365584 31.6068371,20.0278327 31.7590281,19.8356469 C32.3000393,19.1531602 32.6120056,18.6593283 32.7146461,17.7675053 L33.1423989,15.7084434 C33.2435225,14.8337708 33.089309,12.6057265 32.6125112,12.6057265 C32.1341966,12.6057265 31.8834101,12.9764788 31.8692528,12.6874434 C31.8288034,11.7688858 32.6125112,5.13216903 32.6125112,4.32660265 C32.6125112,0.190823894 25.1056011,0.36989469 22.4875112,0.353534661 C19.8704326,0.337611504 12.9788596,1.21127522 12.9788596,4.5717531 C12.9788596,5.37782389 13.3403764,11.7688858 13.299927,12.6874434 C13.2867809,12.9764788 13.0344775,12.599169 12.5581854,12.599169 C12.0798708,12.599169 11.9266685,14.8337708 12.0267809,15.7084434 L12.4550393,17.7675053 C12.5591966,18.6593283 12.8701517,19.1531602 13.4101517,19.8356469 C13.5628483,20.0278327 13.8500393,21.1365584 13.8879607,21.3867531 C13.8879607,21.3867531 14.9735225,24.4909832 15.4402079,25.7429655 C16.2426236,27.8968593 17.1340281,28.2903106 17.0591966,28.787169 L16.4059382,33.2361956 C16.3017809,33.9323018 14.7990843,34.3116292 14.2241966,34.6460628 C14.2241966,34.6460628 3.60925281,36.7964257 0.0021741573,43.2792929 C5.92397191,48.6645319 13.8004888,51.9559035 22.4354326,51.9559035 C31.1214438,51.9559035 39.0389157,48.6241779 44.9728483,43.1814345" id="Fill-1" fill="#C7DCED" mask="url(#mask-2)"></path>
                            </g>
                            <path d="M35.1705843,31.7116726 C35.422382,23.6862743 38.6148539,20.9992035 36.3188427,9.97651327 C35.2585618,4.88686726 29.3574944,0 23.1004719,0 C16.8434494,0 10.942382,4.88686726 9.88210112,9.97651327 C7.58558427,20.9992035 10.7785618,23.6862743 11.0303596,31.7116726 C11.1233933,34.6862655 10.6465955,39.004646 7.17502247,41.834469 C10.796764,40.0477965 14.2238427,39.3526991 14.2238427,39.3526991 C14.799236,39.0182655 16.3019326,38.6389381 16.4060899,37.9428319 L17.0593483,33.4938053 C17.1341798,32.9969469 16.2422697,32.6034956 15.4403596,30.4501062 C14.9736742,29.1976195 13.8881124,26.0938938 13.8881124,26.0938938 C13.850191,25.8431947 13.563,24.734469 13.4103034,24.5422832 C12.8703034,23.8597965 12.5588427,23.3659646 12.455191,22.4741416 L12.0269326,20.4150796 C11.9263146,19.5404071 12.0800225,17.3058053 12.5578315,17.3058053 C13.0346292,17.3058053 13.2869326,17.683115 13.3000787,17.3940796 C13.3000787,17.3940796 13.770809,9.17649558 18.1019326,8.67610619 C19.2527191,8.54243363 31.7399663,17.8087168 31.7399663,17.8087168 L32.3826067,17.3431327 C32.4528876,17.3254779 32.5272135,17.3123628 32.6121573,17.3123628 C33.0894607,17.3123628 33.2431685,19.5404071 33.1420449,20.4150796 L32.7147978,22.4741416 C32.6116517,23.3659646 32.2996854,23.8597965 31.7591798,24.5422832 C31.6069888,24.734469 31.3203034,25.8431947 31.282382,26.0938938 C31.282382,26.0938938 30.1765955,29.4881681 29.7665393,30.5989115 C29.195191,32.148 28.1551348,32.9041327 27.990809,33.3732478 L28.672382,37.4419381 C28.7765393,38.1385487 30.3702472,39.0182655 30.9466517,39.3526991 C30.9466517,39.3526991 34.6988427,40.2193009 38.4131124,42.1113982 C34.9754157,39.252823 35.0760337,34.7412478 35.1705843,31.7116726" id="Fill-4" fill="#698AA6"></path>
                            <path d="M28.5417303,36.6605841 L27.9906067,33.3732478 C23.3743146,38.3367876 20.6126292,36.2641062 17.4110562,33.7989823 C21.5404382,38.133 24.3895955,37.7299646 28.5417303,36.6605841" id="Fill-6" fill="#95B4CE"></path>
                            <path d="M44.9698652,47.8904416 C43.1359888,44.0986805 37.983236,41.6804681 34.4595843,40.4209195 C31.932,43.6078752 27.5649775,45.7199018 22.5917191,45.7199018 C17.5926742,45.7199018 13.2084607,43.586185 10.6864382,40.3694681 C7.25683146,41.5669726 2.2572809,43.928185 0.000202247191,47.984769 C5.922,53.3715212 13.7995281,56.6623885 22.4354831,56.6623885 C31.1204831,56.6623885 39.0369438,53.3316717 44.9698652,47.8904416" id="Fill-8" fill="#698AA6"></path>
                        </g>
                    </g>
                </g>
            </g>
        </g>
    </g>
</svg>