<?xml version="1.0" encoding="UTF-8"?>
<svg width="45px" height="45px" viewBox="0 0 45 45" version="1.1" xmlns="http://www.w3.org/2000/svg" xmlns:xlink="http://www.w3.org/1999/xlink">
    <!-- Generator: sketchtool 55.2 (78181) - https://sketchapp.com -->
    <title>8F7FA779-B34E-40CD-B273-49804F47B846@1x</title>
    <desc>Created with sketchtool.</desc>
    <g id="Desktop" stroke="none" stroke-width="1" fill="none" fill-rule="evenodd">
        <g id="Home-v2" transform="translate(-1048.000000, -1569.000000)" fill="#172B3B">
            <g id="Content2" transform="translate(0.000000, 1360.000000)">
                <g id="Copy" transform="translate(835.000000, 196.000000)">
                    <g id="LaundryIcon" transform="translate(200.000000, 0.000000)">
                        <g id="Group-10" transform="translate(13.000000, 13.000000)">
                            <path d="" id="Fill-1"></path>
                            <path d="M44.4364773,13.3008621 C44.4464642,13.3190483 44.4544568,13.3372293 44.4644438,13.3554155 C44.4764301,13.381681 44.4904108,13.4059293 44.5043915,13.4301724 C44.4784244,13.3776414 44.4564511,13.3372293 44.4364773,13.3008621 Z" id="Fill-2"></path>
                            <path d="M44.4364773,13.3008621 C44.4005233,13.2301448 44.3665636,13.1654897 44.3485841,13.1311448 C44.3645642,13.1574103 44.3925307,13.2119638 44.4364773,13.3008621 Z" id="Fill-3"></path>
                            <path d="M44.5126705,13.442069 C44.5186636,13.4541931 44.5246517,13.4642948 44.5306449,13.476419 C44.546625,13.5067241 44.5586114,13.52895 44.566604,13.5451138 C44.572592,13.5572328 44.5765909,13.5612776 44.5745915,13.5612776 C44.5745915,13.5612776 44.572592,13.5552155 44.566604,13.5451138 C44.5586114,13.5309672 44.546625,13.5067241 44.5306449,13.476419 C44.5226574,13.4622724 44.5166642,13.4461086 44.5066773,13.4299448 C44.4946909,13.4057017 44.4807102,13.3794362 44.4667244,13.3531655 C43.9793335,12.4156655 43.4919631,11.4761483 43.0005426,10.5406655 C41.8020085,8.26563103 40.6154915,5.96426897 39.2451903,3.78601034 C37.1817358,0.504734483 33.4084858,-0.0286448276 30.0524063,1.34732069 C27.8751222,2.24442414 24.1195653,6.37832069 22.4995653,6.37832069 C20.8795653,6.37832069 17.2882585,2.2424069 15.1088267,1.34933793 C11.7669631,-0.0205241379 8.02746307,0.520924138 5.97229261,3.78802759 C4.60199148,5.96607931 3.41348011,8.26537241 2.21494602,10.5426828 C1.7095771,11.5024241 1.20817483,12.4662 0.708827727,13.4299241 C0.409199318,14.0077862 0.0456402273,14.4826138 0.301332273,15.1574069 C0.710822045,16.2383379 1.73555386,17.1071483 2.65242784,17.7395793 C3.7430642,18.4891655 5.07143352,19.1054069 6.41575739,19.0650103 C6.65146534,19.056931 7.29867784,19.056931 7.45244489,18.8467966 C7.66418011,18.5558483 7.83996136,18.2305552 8.02374034,17.9214 C8.8087858,16.6040379 9.57583125,15.2745724 10.3428767,13.9471241 C9.4539733,20.3236759 8.68094489,26.7204 8.02374034,33.1254 C7.73409886,35.9439517 7.46241648,38.7664345 7.27868352,41.5931586 C7.17880909,43.1307626 7.13885625,42.6943143 7.2167625,43.2600729 C7.2986625,43.8439867 7.93384773,44.0419867 8.44122273,44.1753316 C9.78554659,44.530935 17.8457114,44.9855384 22.5635523,44.9855384 C27.2756659,44.9855384 35.4294614,44.5289126 36.7738364,44.1753316 C37.2812063,44.0419816 37.8624784,43.8338695 37.9982966,43.2600729 C38.0961767,42.843854 38.03625,43.1307626 37.9363756,41.5931586 C37.7526017,38.764469 37.4809449,35.9417793 37.1913188,33.1254 C36.5341142,26.718331 35.7610858,20.3236759 34.8721824,13.9471241 C35.6372335,15.2745724 36.404279,16.6040379 37.1892733,17.9214 C37.3730472,18.2305345 37.546829,18.5558483 37.7605688,18.8467966 C37.9143767,19.0569259 38.5595744,19.0589483 38.7972563,19.0650103 C40.1415801,19.1054224 41.4699494,18.4911828 42.5605858,17.7395793 C43.4794551,17.1071483 44.5021824,16.2383897 44.9116824,15.1574069 C45.1653648,14.4886138 44.8098085,14.0158552 44.5121795,13.4420276 L44.5126705,13.442069 Z M6.14045455,18.0972414 C5.90275227,18.4488052 4.65831818,18.0002586 3.36190909,17.1011379 C2.0655,16.2 1.20860591,15.1857414 1.44628773,14.8341724 C1.68399,14.484631 2.92842614,14.9311552 4.22483523,15.8302759 C5.52124432,16.7314138 6.37813636,17.7476897 6.14045455,18.0972414 Z M25.0307386,30.6868966 C25.7918011,29.8383103 27.142108,30.105 28.1928068,29.8019483 C29.2874318,29.4867517 29.5790625,27.9451552 30.7595966,27.636 C33.556142,26.9065862 34.9523693,30.2484828 33.5421307,32.3699483 C33.0087784,33.1741034 32.3935568,33.4650517 31.704392,33.4893103 L31.704392,38.7931034 C31.704392,39.3649138 31.2469619,39.8275862 30.6816648,39.8275862 C30.1163676,39.8275862 29.6589375,39.3648983 29.6589375,38.7931034 L29.6589375,33.1153448 C28.818,32.9900741 28.2467045,33.4648862 27.613483,33.8205 L27.613483,36.2066897 C27.613483,36.7785 27.1560528,37.2411724 26.5907557,37.2411724 C26.0254585,37.2411724 25.5680284,36.7784845 25.5680284,36.2066897 L25.5680284,34.1983448 C25.5520483,34.1983448 25.5440557,34.2003621 25.5440557,34.2003621 C25.5440557,34.2003621 25.5520483,34.2003621 25.5680284,34.1983448 L25.5680284,34.0266052 C24.3275625,33.5618948 23.7662898,32.0990534 25.0306875,30.6867776 L25.0307386,30.6868966 Z M35.4758523,43.0784483 C35.4758523,43.7189483 29.7030682,44.1149483 22.5536932,44.1129387 C15.4048295,44.1129387 9.63153409,43.7189379 9.63153409,43.0784483 C9.63153409,42.4379483 15.4043182,42.4763276 22.5536932,42.4783448 C29.7025568,42.4763245 35.4758523,42.4399557 35.4758523,43.0784483 Z M42.06375,17.1010345 C40.7693864,18.0021724 39.5249318,18.4487069 39.2852045,18.0971379 C39.0475023,17.7475966 39.9044148,16.7313103 41.2008239,15.8301724 C42.4951875,14.9290345 43.739642,14.4825 43.9793693,14.834069 C44.219071,15.1836103 43.3601591,16.1978793 42.06375,17.1010345 Z" id="Fill-4"></path>
                            <path d="M44.5285227,13.4767241 C44.5225295,13.4666224 44.5165415,13.4544983 44.5105483,13.4423741 C44.5085489,13.4383345 44.5065494,13.4342948 44.5045551,13.4302552 C44.514542,13.446419 44.5205352,13.4605603 44.5285227,13.4767241 Z" id="Fill-5"></path>
                            <path d="M44.5126705,13.442069 C44.510671,13.4380293 44.5086716,13.4339845 44.5066773,13.4299448 C44.5066773,13.4339845 44.5086716,13.4380293 44.5126705,13.442069 Z" id="Fill-6"></path>
                            <path d="M44.5044886,13.4301724 C44.4925023,13.4039069 44.4785216,13.3796586 44.4645358,13.3554155 C44.4785216,13.3796638 44.4925023,13.4059293 44.5044886,13.4301724 Z" id="Fill-7"></path>
                            <path d="" id="Fill-8"></path>
                            <path d="M22.5,5.07517241 C23.5227273,4.96404828 26.7487159,2.28693103 26.7487159,2.04848276 C26.7487159,1.80804828 23.7204716,2.42631207 22.5199943,2.43439138 C21.3174716,2.42428966 18.2792557,1.80806379 18.2792557,2.04848276 C18.2792557,2.2869 21.4772727,4.96401724 22.5,5.07517241 Z" id="Fill-9"></path>
                        </g>
                    </g>
                </g>
            </g>
        </g>
    </g>
</svg>