<?xml version="1.0" encoding="UTF-8"?>
<svg width="70px" height="70px" viewBox="0 0 70 70" version="1.1" xmlns="http://www.w3.org/2000/svg" xmlns:xlink="http://www.w3.org/1999/xlink">
    <!-- Generator: sketchtool 55.2 (78181) - https://sketchapp.com -->
    <title>3095E120-E888-45E6-879E-5413B36CFD86@1x</title>
    <desc>Created with sketchtool.</desc>
    <defs>
        <polygon id="path-1" points="0.000100990099 0.798274336 50.5849307 0.798274336 50.5849307 55.5394602 0.000100990099 55.5394602"></polygon>
    </defs>
    <g id="Desktop" stroke="none" stroke-width="1" fill="none" fill-rule="evenodd">
        <g id="Home-v2" transform="translate(-686.000000, -3627.000000)">
            <g id="Testimonials" transform="translate(-164.000000, 3510.000000)">
                <g id="Testimonial-Main" transform="translate(600.000000, 117.000000)">
                    <g id="Male-Avatar" transform="translate(250.000000, 0.000000)">
                        <rect id="Rectangle-Copy-3" fill="#F1F7FC" x="0" y="0" width="70" height="70" rx="35"></rect>
                        <g id="Group-14-Copy-2" transform="translate(10.000000, 14.000000)">
                            <mask id="mask-2" fill="white">
                                <use xlink:href="#path-1"></use>
                            </mask>
                            <g id="Clip-2"></g>
                            <path d="M33.1859525,36.5932655 L32.4371109,31.9681947 C32.3558139,31.4703274 32.487101,30.9628761 32.8001703,30.5663982 L33.1652495,30.1401593 C33.4550911,29.7719292 34.1241505,28.5345752 34.200398,28.0715133 L34.7174673,24.9703097 C34.7588733,24.7206195 35.0694178,23.6118938 35.2350416,23.419708 C35.8207842,22.7367168 36.158596,22.2433894 36.2701901,21.3510619 L36.7342396,19.2925044 C36.8433089,18.4178319 36.6766752,16.1897876 36.1601109,16.1897876 C35.6420317,16.1897876 35.3693584,16.5600354 35.3542099,16.2715044 C35.3102792,15.3524425 36.1601109,8.71623009 36.1601109,7.91116814 C36.1601109,3.77488496 31.3752,0.798274336 25.0926059,0.798274336 C18.8100119,0.798274336 15.0622693,3.52670796 15.0622693,6.88567257 C15.0622693,7.69275221 15.2733386,15.3524425 15.228903,16.2715044 C15.2142594,16.5600354 14.9420911,16.1832301 14.4250218,16.1832301 C13.9069426,16.1832301 13.7403089,18.4178319 13.8493782,19.2925044 L14.3139327,21.3510619 C14.4255267,22.2433894 14.7628337,22.7367168 15.3485762,23.419708 C15.513695,23.6118938 15.8252495,24.7206195 15.8666554,24.9703097 L16.3847347,28.0715133 C16.4594673,28.5345752 17.1290317,29.7719292 17.4188733,30.1401593 L17.7844574,30.5663982 C18.0965168,30.9628761 18.227804,31.4703274 18.1465069,31.9681947 L17.3981703,36.5932655 C17.2855663,37.2898761 16.8538337,37.8951858 16.2312297,38.2301239 C16.2312297,38.2301239 3.93871485,40.4198319 0.000100990099,43.875646 C6.10293267,51.0056903 15.1738634,55.5394602 25.2925663,55.5394602 C35.4112693,55.5394602 44.4822,51.0056903 50.5850317,43.875646 C46.6454079,40.4198319 34.353903,38.2301239 34.353903,38.2301239 C33.7297842,37.8951858 33.2990614,37.2898761 33.1859525,36.5932655" id="Fill-1" fill="#C7DCED" mask="url(#mask-2)"></path>
                            <path d="M34.434998,16.5640708 L35.3560277,15.949177 C35.4004634,14.5282124 36.1604139,8.55229204 36.1604139,7.78960177 C36.1604139,3.65331858 35.1242554,2.38418584 32.5373941,1.06915044 C30.8463149,0.208097345 29.0209188,-0.184849558 27.5656515,-0.360893805 C25.938701,-0.556610619 24.7747901,-0.481451327 24.7747901,-0.481451327 C17.7438594,-0.392672566 14.831305,3.39555752 14.831305,6.75553097 C14.831305,7.53083186 15.2403149,14.6598673 15.2322356,16.0137434 L15.9593644,16.5640708 C15.9593644,16.5640708 17.3570673,7.25793805 18.3922158,6.7419115 C19.4268594,6.22437168 32.8817703,7.77497345 32.8817703,7.77497345 L34.434998,16.5640708 Z" id="Fill-4" fill="#698AA6" mask="url(#mask-2)"></path>
                            <path d="M33.1859525,36.4721027 L32.4371109,31.846023 C32.4295366,31.8021381 32.4340812,31.7592619 32.4295366,31.7138637 C23.2273188,37.797731 18.3924178,31.0389434 18.3924178,31.0389434 C21.0888535,35.2720761 29.2347149,36.3530584 33.221299,36.6294832 C33.2086752,36.577023 33.1950416,36.5250673 33.1859525,36.4721027" id="Fill-7" fill="#95B4CE" mask="url(#mask-2)"></path>
                            <path d="M25.2990802,29.7973018 C24.2876644,29.7973018 23.3454267,29.6187354 22.4688327,29.3362575 C22.8682485,28.8141779 23.8842089,28.2880628 25.2990802,28.2880628 C26.7270802,28.2880628 27.7465752,28.8227531 28.1384168,29.3508858 C27.2406149,29.6232752 26.2928228,29.7973018 25.2990802,29.7973018 L25.2990802,29.7973018 Z M33.165199,30.0182398 C33.4550406,29.6500097 34.124605,28.4131602 34.2003475,27.9500982 L34.9779713,23.9036027 C34.7350901,24.1532929 34.624001,22.4503549 34.3169911,22.7313195 C33.9357535,25.5636646 31.3079911,28.0343372 29.5815653,28.8141779 C28.9690604,27.6302929 27.2855554,26.7788239 25.2990802,26.7788239 C23.3408822,26.7788239 21.6780802,27.606585 21.0438624,28.7652487 C18.9700307,27.7458062 17.0931297,27.0153991 16.0685851,22.5164345 C15.6747238,22.0508504 15.794902,24.2249212 15.6358426,23.995408 C15.7469317,24.3454788 15.8443871,24.7157265 15.866605,24.8483903 L16.3846842,27.9500982 C16.4599218,28.4131602 17.1289812,29.6500097 17.4193277,30.0182398 L17.7844069,30.4444788 C18.0964663,30.8409566 18.4090307,31.0593726 18.4161,31.0689566 C18.7700703,31.5385761 23.5787139,37.5659478 32.4299911,31.7141159 C32.4340307,31.7595142 32.4299911,31.8023903 32.4370604,31.8462752 C32.3557634,31.3499212 32.4870505,30.8409566 32.8001198,30.4444788 L33.165199,30.0182398 Z" id="Fill-9" fill="#698AA6" mask="url(#mask-2)"></path>
                            <path d="M33.9076277,37.7917788 C32.098895,41.1189646 26.0546376,44.8925664 26.0546376,44.8925664 L25.2992317,44.8925664 C25.2992317,44.8925664 18.3374792,41.5093894 16.6832614,37.7842124 C16.5469248,37.9077965 16.3969545,38.0197788 16.2313307,38.1085575 C16.2313307,38.1085575 3.93881584,40.2982655 0.000201980198,43.7545841 C6.10303366,50.8841239 15.1734594,55.4178938 25.2921624,55.4178938 C35.4113703,55.4178938 44.482301,50.8841239 50.5851327,43.7545841 C46.6455089,40.2982655 34.354004,38.1085575 34.354004,38.1085575 C34.1904,38.0197788 34.0419446,37.9123363 33.9076277,37.7917788" id="Fill-11" fill="#698AA6" mask="url(#mask-2)"></path>
                        </g>
                    </g>
                </g>
            </g>
        </g>
    </g>
</svg>