<?xml version="1.0" encoding="UTF-8"?>
<svg width="46px" height="46px" viewBox="0 0 46 46" version="1.1" xmlns="http://www.w3.org/2000/svg" xmlns:xlink="http://www.w3.org/1999/xlink">
    <!-- Generator: sketchtool 55.2 (78181) - https://sketchapp.com -->
    <title>B55EEEE3-23ED-4422-A25F-DA229A3142F0@1x</title>
    <desc>Created with sketchtool.</desc>
    <g id="Desktop" stroke="none" stroke-width="1" fill="none" fill-rule="evenodd">
        <g id="Home-v2" transform="translate(-347.000000, -2168.000000)" fill="#172B3B">
            <g id="Content3" transform="translate(0.000000, 1960.000000)">
                <g id="Copy" transform="translate(135.000000, 196.000000)">
                    <g id="SafeIcon" transform="translate(200.000000, 0.000000)">
                        <g id="Group" transform="translate(12.000000, 12.000000)">
                            <path d="M41.1009398,42.4289118 C40.9533453,42.6459854 40.5461601,43.2821405 40.5461601,43.2821405 C40.5461601,43.2821405 39.9283433,43.3281405 39.40701,43.5223924 C39.3831581,43.4034699 39.3526708,43.2835668 39.3151893,43.1655358 C39.0891347,42.4541405 39.3151893,41.6677722 39.4660119,40.6563963 C39.4910295,40.4884428 39.5106669,40.279749 39.5242069,40.0454699 C40.2096338,41.0092412 40.8888735,42.0879234 41.1009398,42.4289118 M22.8993765,10.544404 C23.3443121,10.8761211 24.2600977,11.7958536 24.7241328,12.0233575 C25.1881679,12.2508614 27.5473492,15.1551017 29.0987059,16.1536405 C30.0960002,16.7955901 31.4156533,17.0652606 33.0761367,17.3286908 C32.8740236,17.9898963 32.8569866,19.2613149 32.4220938,20.8467102 C32.3295558,21.1845784 32.2501991,21.5254777 32.1841133,21.8638808 C32.111123,22.1069854 32.0381328,22.3647994 31.9657702,22.6406211 C31.8903589,22.9279428 31.8196104,23.2270319 31.7528073,23.5344118 C31.0558131,24.1927645 30.2952439,25.1067025 29.9381835,25.3613071 C29.561665,25.6299079 29.2184135,25.7215513 28.9677,25.7737916 C28.7167176,25.8259428 27.9972166,25.9959467 27.739509,26.1595319 C27.4820704,26.3233846 27.9041406,26.6059815 27.9041406,26.6059815 C27.9041406,26.6059815 26.8474856,27.1364079 26.5634154,27.3657839 C26.2795246,27.5951598 26.0020899,27.7129234 26.160355,27.8901482 C26.3186201,28.067373 26.9986669,27.8058149 26.9986669,27.8058149 C26.9986669,27.8058149 26.9193102,28.0025629 26.6218794,28.2648343 C26.3247176,28.5270164 26.2321796,28.7566598 26.2649086,28.9598265 C26.297548,29.1633498 26.5284447,29.2555281 26.5284447,29.2555281 L26.5810802,29.504873 C26.6335363,29.7543071 26.8118872,29.7872025 27.3203082,29.3810474 C27.8289086,28.9747141 28.2580626,28.9553691 28.2580626,28.9553691 C28.2580626,28.9553691 28.2051581,29.0865939 27.8283706,29.5455242 C27.4516727,30.0044544 27.2139612,30.214218 27.5900314,30.3260978 C27.9661016,30.4378885 28.58078,29.5790436 28.9970217,29.2120242 C29.4129944,28.8450939 30.5029164,28.1375319 30.8203433,27.7311094 C30.8658053,27.6724505 30.9759184,27.5858885 31.1318521,27.4781094 C30.7981952,30.4221986 30.7250256,33.0365319 30.7250256,33.0365319 C30.7250256,33.0365319 32.1429554,33.8293187 34.0925304,34.0936405 C34.1357507,34.0995242 34.180047,34.1041598 34.2250607,34.1081715 C34.6336805,35.6045087 35.177162,36.8779777 35.4731581,37.3985978 C35.9627488,38.2597606 36.3395363,42.3418149 36.3395363,42.3418149 C36.3395363,42.3418149 35.2295285,42.8629699 34.7112439,43.0730901 C34.5367488,43.0525862 34.134047,43.0130939 33.8668345,43.0510707 C33.517934,43.1004583 32.9530217,43.3813614 32.8199535,43.9595707 C32.7766435,44.1475823 32.7830997,44.3300668 32.8109866,44.491156 C32.8109866,44.7134893 32.8829905,44.8974893 32.997049,45.0271986 C33.0105889,45.0518032 33.0193765,45.0662451 33.0193765,45.0662451 L33.0339028,45.0657994 C33.1170256,45.1461211 33.2176338,45.2013032 33.3260431,45.2251056 C33.6650802,45.3002567 34.3054934,45.449935 35.3602653,45.3751405 C36.3005304,45.3081017 38.1087878,45.0926327 38.8367176,44.9138924 C38.9468306,45.2157451 39.1152283,45.4965591 39.2668579,45.6608575 C39.6322575,46.0572955 41.6333024,45.7051637 42.2907527,45.3800436 C42.7257351,45.1650203 43.4221913,44.6610707 43.9663901,44.2465358 C44.344433,43.9804312 44.6449125,43.7504312 44.7698209,43.6162645 C45.1310061,43.2277606 44.7766357,42.5117296 44.2501913,41.9645436 C43.7239262,41.4173575 43.5755246,40.6006792 43.257201,39.6129273 C42.9387878,38.6251753 41.7907605,36.3915009 41.0249008,35.8769428 C40.2590412,35.3621172 40.2949086,35.0904854 39.7082965,33.3023691 C39.6750295,33.2009195 39.6401484,33.0889505 39.6041016,32.9700281 C39.7483784,32.9313381 39.8908618,32.8945203 40.0296689,32.8602877 C41.3022458,32.5475591 42.4221172,32.6839544 42.4221172,32.6839544 C42.4221172,32.6839544 42.0678365,31.362435 41.7133765,28.7195746 C41.3589164,26.0765358 40.3841289,23.8740629 40.3841289,23.8740629 L40.222277,23.5613343 C40.204702,23.5260319 40.1873063,23.492156 40.1706279,23.461311 C40.0124525,23.0998187 39.8433375,22.7417141 39.7277546,22.3701482 C39.4739028,21.5543614 39.4881601,20.6744777 39.5669788,19.8336405 C39.713856,18.263311 40.4550568,16.7410319 40.4121055,15.1593808 C40.3925577,14.4469156 40.1147644,13.8446366 39.6590685,13.3115358 C39.5822225,13.2214079 39.5095012,13.1348459 39.4426084,13.0472141 C39.9720119,13.309842 41.0382614,14.0189195 41.1424564,15.5038459 C41.2089008,16.4522839 40.8176766,17.1180358 40.8176766,17.1180358 C40.8176766,17.1180358 41.0765499,17.0738187 41.4792517,16.9390281 C41.4716299,17.1703653 41.4671464,17.4154312 41.4671464,17.671373 C41.4671464,19.3317412 40.5394349,21.5454467 40.5394349,21.5454467 C40.5394349,21.5454467 41.1888151,21.637625 42.2093336,20.6230397 C43.1631386,19.6749583 42.8206045,18.2440552 42.7717351,18.0604118 C42.8189905,18.2297025 43.1760509,19.4625203 43.6937975,19.9773459 C44.2505499,20.5307722 45.2710685,20.5307722 45.2710685,20.5307722 C45.2710685,20.5307722 44.2876727,20.2725125 44.0649359,19.0550281 C43.6937975,17.0257684 45.2710685,13.7973885 45.2710685,13.7973885 L45.2525071,13.8026482 C45.3237936,13.6673226 45.3927488,13.5285203 45.4566825,13.3823187 C46.61547,10.7325939 45.3173375,8.67819472 45.3173375,8.67819472 C45.3173375,8.67819472 46.384394,6.74120247 45.4566825,4.85029937 C44.5288813,2.95939627 43.6473492,2.95939627 43.6473492,2.95939627 C43.6473492,2.95939627 42.491162,0.94850092 40.3538209,0.284531928 C38.1272595,-0.407340165 35.2511386,0.192264486 33.9986474,1.76027611 C33.9986474,1.76027611 32.537318,2.6776017 32.1894037,3.46673348 C31.4938443,5.04437301 32.1431347,5.77270635 32.1431347,5.77270635 C32.1431347,5.77270635 32.1686006,5.30851642 32.3116221,4.92241953 C32.4547332,4.53632263 32.6531698,4.4352296 32.6531698,4.4352296 C32.6531698,4.4352296 32.4677351,5.0809234 32.6531698,5.63434976 C32.7377273,5.88627999 32.9579535,6.13090015 33.0949671,6.2656017 C32.9645889,7.15324123 32.8421016,7.28009782 32.6294973,7.55796991 C32.3877507,7.8739079 31.8900002,8.23281487 32.0611776,8.46593503 C32.2325343,8.69941177 32.3268657,8.71964821 32.3228306,8.96409007 C32.3188852,9.20853193 32.0810841,9.2801172 32.2206084,9.4328265 C32.3600431,9.5855358 32.5096104,9.69144278 32.5096104,9.69144278 C32.5096104,9.69144278 32.3848813,9.81179162 32.4063121,9.93909394 C32.4277429,10.0664854 32.4666591,10.0013187 32.5600938,10.3648614 C32.6537078,10.7285823 32.6270763,11.3392412 32.9112361,11.4711792 C33.275739,11.6404699 34.1254388,11.6865591 34.7165343,11.7758846 L34.7124096,11.7788265 C34.7124096,11.7788265 35.312741,12.0985087 35.3985538,12.6528265 C35.4293102,12.8515358 35.453969,13.5496482 35.4608735,13.7627994 C33.4139184,13.4867994 30.7007254,13.3186676 30.7007254,13.3186676 C30.7007254,13.3186676 29.9727059,12.7560591 29.1747449,12.1808808 C28.3767839,11.6057916 27.2228384,11.0022645 26.8827254,10.6894467 C26.5425227,10.3765397 26.2056377,10.1378032 26.1040431,9.90388077 C26.0020899,9.66995828 25.868125,8.92602418 25.6553414,8.70788077 C25.4421991,8.48991565 25.2484252,8.95767146 25.2484252,8.95767146 C25.2484252,8.95767146 24.5138599,8.03481875 24.2309554,7.80410557 C23.9479612,7.57348154 23.7763355,7.32707844 23.6333141,7.51660557 C23.4903823,7.706311 23.8845655,8.31616759 23.8845655,8.31616759 C23.8845655,8.31616759 23.674741,8.27819084 23.3567761,8.04123735 C23.0387215,7.80437301 22.7941952,7.76006681 22.6003316,7.83272185 C22.4062887,7.90528774 22.3618131,8.14883813 22.3618131,8.14883813 L22.1265227,8.24993115 C21.8913219,8.35111332 21.8945499,8.53119084 22.3968735,8.94519084 C22.8991971,9.35919084 23.0041094,9.77319084 23.0041094,9.77319084 C23.0041094,9.77319084 22.8642264,9.74787301 22.3364369,9.47303193 C21.8087371,9.1981017 21.5543472,9.00857456 21.5194661,9.39725673 C21.484585,9.78602805 22.4542614,10.2125978 22.8993765,10.544404" id="Fill-1"></path>
                            <path d="M26.6960712,7.44282728 C26.5137749,7.29528852 26.4002544,6.95456759 26.1604805,6.92015673 C25.9212447,6.88601332 25.6082115,6.79668774 25.6082115,6.79668774 C25.6082115,6.79668774 25.290157,6.30521875 25.1522466,6.22561022 C25.0140673,6.14617999 24.4776696,6.12888542 24.1462544,6.34899007 C23.8152876,6.56927301 23.3913343,7.01438542 23.1187418,7.03488929 C22.8463285,7.05512573 22.2139854,6.8752265 21.9213967,6.62490092 C21.6279113,6.37448619 21.491077,6.2725017 21.1464805,6.18656371 C19.7564377,5.83862185 18.5011667,6.18656371 17.7479503,6.50187766 C16.4857749,7.03052108 15.2894162,8.58899394 15.2894162,8.58899394 C15.2894162,8.58899394 14.0606872,9.21641255 13.9344338,9.4659358 C13.80827,9.71563735 14.0392564,12.2485792 14.0592525,12.7282808 C14.0796073,13.2069125 14.2009289,13.4030366 14.2009289,13.4030366 C14.2009289,13.4030366 14.4240244,12.6910172 14.5549406,12.2038273 C14.6854084,11.7168156 14.8408041,11.2626994 14.8408041,11.2626994 C14.8408041,11.2626994 14.6115215,13.2539823 14.4181959,13.7616761 C14.2246911,14.2694591 13.6361063,15.4352381 13.5554045,15.9884862 C13.4752408,16.5429823 13.7848665,16.8850405 13.7848665,16.8850405 C13.7848665,16.8850405 13.8808119,17.0509436 13.9690458,17.2632924 C13.5587223,17.7409436 12.6570147,18.7160366 11.6483324,19.9863854 C10.4380751,21.5106257 5.35583727,27.2042846 4.38768523,29.2092963 C3.41962285,31.2146645 1.80639478,34.7440947 1.32227392,36.9890908 C0.838332399,39.2348893 -0.371835242,41.560742 0.112106278,42.1221025 C0.596227136,42.6833738 0.999556571,42.8438389 1.24166183,42.4433001 C1.48331875,42.0421374 2.0483207,41.4005443 2.0483207,41.4005443 C2.0483207,41.4005443 2.45156047,41.8010831 2.77436749,42.1221025 C3.09708484,42.4433001 3.27059361,42.7905288 3.27059361,42.7905288 C3.27059361,42.7905288 2.29750979,43.7819358 2.78163064,44.4237071 C3.2657515,45.0653001 4.64924858,44.987118 6.26301466,44.987118 C7.87597372,44.987118 10.6923753,45.4787653 11.015272,45.3176761 C11.2495761,45.2010715 11.2495761,45.08518 11.2495761,45.08518 C11.2495761,45.08518 11.6017944,45.4347265 12.168769,45.1623815 C12.3766209,45.0629823 12.9712135,44.8129242 12.9511277,44.2486219 C12.9511277,44.2486219 12.9511277,44.1323738 13.0489562,44.1514513 C13.1467846,44.1710637 13.224886,44.1901412 13.224886,44.1901412 C13.224886,44.1901412 13.0295878,43.8790172 12.8142037,43.432211 C12.5989991,42.9846916 12.5407145,42.6345211 12.1882271,42.5961877 C11.8363675,42.5570521 11.1910225,42.5961877 10.9170848,42.5961877 C10.6435956,42.5961877 10.3501998,42.5373505 9.93960725,42.5570521 C9.52892499,42.576397 9.33308873,42.6547575 9.09842597,42.6547575 C8.86385287,42.6547575 8.21859751,42.6154436 8.21859751,42.6154436 C8.21859751,42.6154436 8.98104975,42.4210133 10.0762622,42.4014009 C11.171654,42.3819668 11.2108392,42.3044087 11.9146482,42.3044087 C12.6186365,42.3044087 12.7753772,42.6737459 12.7753772,42.6737459 C12.7753772,42.6737459 13.0295878,42.6737459 13.1271472,42.5570521 C13.224886,42.4405366 13.3423519,42.1294125 13.3423519,42.1294125 C13.3423519,42.1294125 13.3619893,42.3241994 13.3224455,42.4405366 C13.2836189,42.5570521 13.224886,42.6547575 13.224886,42.6547575 C13.224886,42.6547575 13.5963831,42.4405366 13.7137593,42.2460172 C13.8313149,42.0514087 13.8898685,41.8961141 13.8898685,41.8961141 L14.1442583,41.8378118 C14.1442583,41.8378118 13.7922193,41.2154746 13.4597281,40.9044397 C13.1271472,40.5939397 12.9511277,40.2434125 12.3839737,40.3796296 C11.8169094,40.5154009 11.5038763,40.574149 11.1519269,40.6324513 C10.7997983,40.6903079 10.8585312,40.5351916 10.5845936,40.6324513 C10.3110147,40.7295327 9.82214137,40.8076257 9.82214137,40.8076257 C9.82214137,40.8076257 11.1519269,39.4264668 11.4646911,38.863056 C11.7779035,38.2997343 12.1882271,37.1714862 12.1882271,37.1714862 C12.1882271,37.1714862 12.8142037,36.7048893 13.8313149,36.1018079 C14.8482466,35.4993505 15.6148236,34.7118234 15.6148236,34.7118234 L15.3164961,32.5164823 C15.3164961,32.5164823 15.6447729,34.3262614 16.0044338,35.6259397 C16.3213227,36.7702343 16.4480244,38.4730366 16.1659269,39.2348893 C15.8831121,39.9962963 15.8025897,39.9962963 16.1256657,40.3579668 C16.4480244,40.7186567 16.8111823,41.3601606 16.8111823,41.841556 C16.8111823,42.322773 17.0936384,43.8064513 17.1744299,44.3277846 C17.2549523,44.8487614 17.2549523,45.0494319 17.657923,45.0894591 C18.0615215,45.1297536 18.3035371,45.0494319 18.3035371,45.0494319 C18.3035371,45.0494319 18.868001,45.2500133 19.3926521,45.2094513 C19.9169445,45.1700482 20.2800127,44.8487614 20.2800127,44.8487614 C20.2800127,44.8487614 20.2394825,45.0494319 20.6024611,45.0894591 C20.9657983,45.1297536 21.5707924,45.1297536 21.7725468,44.9693777 C21.9738529,44.8090908 22.1356151,44.5285443 22.1356151,44.5285443 C22.1356151,44.5285443 22.3371901,44.4482226 22.4177125,44.5684823 L22.4984143,44.6883854 C22.4984143,44.6883854 22.579116,44.4482226 22.4984143,44.3277846 C22.4177125,44.2071684 22.1758763,43.8064513 21.6917554,43.5259939 C21.2080829,43.2449125 21.0866716,42.9244281 20.7237827,42.8840443 C20.3604455,42.8438389 19.9575644,42.8438389 19.75581,42.6431684 L19.5541453,42.4433001 L19.2897125,40.9802149 C19.3539152,41.3034629 19.6093811,42.3211684 20.3201843,42.523087 C21.1672837,42.7635172 20.9657983,42.483149 21.1672837,42.7635172 C21.3692174,43.0443312 21.6113227,43.2045288 21.6113227,43.2045288 C21.6113227,43.2045288 21.9738529,43.2045288 22.2162271,43.16468 C22.4581531,43.1242963 22.69981,43.0045715 22.69981,43.0045715 C22.69981,43.0045715 23.1036774,43.16468 23.2651706,43.0045715 C23.4261258,42.8438389 23.5874396,42.5631141 23.5874396,42.5631141 L23.8296345,42.6431684 C23.8296345,42.6431684 23.910157,42.483149 23.3859542,42.0016645 C22.8613032,41.5203583 23.0629679,41.1997846 22.6597281,41.1195521 C22.2564883,41.0394087 21.9335917,41.1195521 21.6113227,40.9989358 C21.2882466,40.8789436 20.844656,40.4779591 20.7641336,39.8770172 C20.6830731,39.2750947 20.2800127,38.5932963 20.5222076,37.7110947 C20.7641336,36.828804 20.8043948,36.5880172 20.5222076,35.8259862 C20.2394825,35.0641335 20.1186092,32.4579125 20.1588704,32.1368932 C20.1994903,31.8159629 20.2394825,31.575711 20.2394825,31.575711 C20.2394825,31.575711 22.1356151,29.0091606 22.3774513,26.8435056 C22.6191082,24.6778505 23.0629679,22.7534281 22.4177125,21.5905908 C21.7725468,20.4279319 21.5707924,19.9464474 21.5306209,19.1842381 C21.5263168,19.1047187 21.5259581,19.0247536 21.5280205,18.9444319 C21.5390497,18.9463932 21.5501687,18.9485327 21.5611979,18.9507614 C21.5828977,18.8212304 21.6028041,18.6875094 21.6192135,18.5448738 C21.7578412,17.3085792 22.2517359,15.3132846 22.7433889,14.4519436 C23.2351316,13.5906025 23.2644533,13.1089397 24.2752876,12.6053467 C25.2853149,12.1020211 25.5481336,11.9780172 25.8166911,11.5304087 C26.0856969,11.082711 26.3486053,10.6746839 26.3486053,10.6746839 C26.3486053,10.6746839 27.1713149,9.77991255 27.1898763,9.09410247 C27.20781,8.40766836 26.8785468,7.59045518 26.6960712,7.44282728" id="Fill-4"></path>
                        </g>
                    </g>
                </g>
            </g>
        </g>
    </g>
</svg>